<mxfile host="app.diagrams.net" modified="2023-06-02T08:58:23.594Z" agent="Mozilla/5.0 (Windows NT 10.0; Win64; x64; rv:109.0) Gecko/20100101 Firefox/113.0" etag="VoT5ARua5u_27nBK3vUb" version="21.2.9" type="device">
  <diagram name="Page-1" id="bSVzFr0ef2cP3eAAzW_g">
    <mxGraphModel dx="699" dy="462" grid="1" gridSize="10" guides="1" tooltips="1" connect="1" arrows="1" fold="1" page="1" pageScale="1" pageWidth="850" pageHeight="1100" math="0" shadow="0">
      <root>
        <mxCell id="0" />
        <mxCell id="1" parent="0" />
        <mxCell id="dqxaGF57X8NzNiyAntkz-5" style="edgeStyle=orthogonalEdgeStyle;rounded=0;orthogonalLoop=1;jettySize=auto;html=1;exitX=0.5;exitY=1;exitDx=0;exitDy=0;entryX=0.5;entryY=0;entryDx=0;entryDy=0;" edge="1" parent="1" source="dqxaGF57X8NzNiyAntkz-1" target="dqxaGF57X8NzNiyAntkz-2">
          <mxGeometry relative="1" as="geometry" />
        </mxCell>
        <mxCell id="dqxaGF57X8NzNiyAntkz-1" value="Mencopy prototype file .json" style="rounded=0;whiteSpace=wrap;html=1;" vertex="1" parent="1">
          <mxGeometry x="120" y="80" width="120" height="60" as="geometry" />
        </mxCell>
        <mxCell id="dqxaGF57X8NzNiyAntkz-6" style="edgeStyle=orthogonalEdgeStyle;rounded=0;orthogonalLoop=1;jettySize=auto;html=1;exitX=0.5;exitY=1;exitDx=0;exitDy=0;entryX=0.5;entryY=0;entryDx=0;entryDy=0;" edge="1" parent="1" source="dqxaGF57X8NzNiyAntkz-2" target="dqxaGF57X8NzNiyAntkz-4">
          <mxGeometry relative="1" as="geometry" />
        </mxCell>
        <mxCell id="dqxaGF57X8NzNiyAntkz-2" value="Mengubah file .json sebagai id jadwal" style="rounded=0;whiteSpace=wrap;html=1;" vertex="1" parent="1">
          <mxGeometry x="120" y="160" width="120" height="60" as="geometry" />
        </mxCell>
        <mxCell id="dqxaGF57X8NzNiyAntkz-18" style="edgeStyle=orthogonalEdgeStyle;rounded=0;orthogonalLoop=1;jettySize=auto;html=1;exitX=0.5;exitY=1;exitDx=0;exitDy=0;entryX=0.5;entryY=0;entryDx=0;entryDy=0;" edge="1" parent="1" source="dqxaGF57X8NzNiyAntkz-3" target="dqxaGF57X8NzNiyAntkz-17">
          <mxGeometry relative="1" as="geometry" />
        </mxCell>
        <mxCell id="dqxaGF57X8NzNiyAntkz-3" value="Mengubah deskripsi dan variabel jadwal dalam file .json" style="rounded=0;whiteSpace=wrap;html=1;" vertex="1" parent="1">
          <mxGeometry x="120" y="430" width="120" height="60" as="geometry" />
        </mxCell>
        <mxCell id="dqxaGF57X8NzNiyAntkz-7" value="No" style="edgeStyle=orthogonalEdgeStyle;rounded=0;orthogonalLoop=1;jettySize=auto;html=1;exitX=1;exitY=0.5;exitDx=0;exitDy=0;entryX=1;entryY=0.5;entryDx=0;entryDy=0;" edge="1" parent="1" source="dqxaGF57X8NzNiyAntkz-4" target="dqxaGF57X8NzNiyAntkz-2">
          <mxGeometry relative="1" as="geometry" />
        </mxCell>
        <mxCell id="dqxaGF57X8NzNiyAntkz-30" value="Yes" style="edgeStyle=orthogonalEdgeStyle;rounded=0;orthogonalLoop=1;jettySize=auto;html=1;exitX=0.5;exitY=1;exitDx=0;exitDy=0;entryX=0.5;entryY=0;entryDx=0;entryDy=0;" edge="1" parent="1" source="dqxaGF57X8NzNiyAntkz-4" target="dqxaGF57X8NzNiyAntkz-29">
          <mxGeometry relative="1" as="geometry" />
        </mxCell>
        <mxCell id="dqxaGF57X8NzNiyAntkz-4" value="Nama file .json tanpa spasi" style="rhombus;whiteSpace=wrap;html=1;" vertex="1" parent="1">
          <mxGeometry x="125" y="240" width="110" height="70" as="geometry" />
        </mxCell>
        <mxCell id="dqxaGF57X8NzNiyAntkz-9" value="&lt;b&gt;Membuat Jadwal&lt;br&gt;&lt;/b&gt;" style="text;html=1;strokeColor=none;fillColor=none;align=center;verticalAlign=middle;whiteSpace=wrap;rounded=0;" vertex="1" parent="1">
          <mxGeometry x="145" y="20" width="70" height="30" as="geometry" />
        </mxCell>
        <mxCell id="dqxaGF57X8NzNiyAntkz-13" style="edgeStyle=orthogonalEdgeStyle;rounded=0;orthogonalLoop=1;jettySize=auto;html=1;exitX=0.5;exitY=1;exitDx=0;exitDy=0;entryX=0.5;entryY=0;entryDx=0;entryDy=0;" edge="1" parent="1" source="dqxaGF57X8NzNiyAntkz-11" target="dqxaGF57X8NzNiyAntkz-12">
          <mxGeometry relative="1" as="geometry" />
        </mxCell>
        <mxCell id="dqxaGF57X8NzNiyAntkz-11" value="Mencari nama file .json jadwal yang ingin dihapus" style="rounded=0;whiteSpace=wrap;html=1;" vertex="1" parent="1">
          <mxGeometry x="320" y="80" width="120" height="60" as="geometry" />
        </mxCell>
        <mxCell id="dqxaGF57X8NzNiyAntkz-20" style="edgeStyle=orthogonalEdgeStyle;rounded=0;orthogonalLoop=1;jettySize=auto;html=1;exitX=0.5;exitY=1;exitDx=0;exitDy=0;entryX=0.5;entryY=0;entryDx=0;entryDy=0;" edge="1" parent="1" source="dqxaGF57X8NzNiyAntkz-12" target="dqxaGF57X8NzNiyAntkz-19">
          <mxGeometry relative="1" as="geometry" />
        </mxCell>
        <mxCell id="dqxaGF57X8NzNiyAntkz-12" value="Hapus" style="rounded=0;whiteSpace=wrap;html=1;" vertex="1" parent="1">
          <mxGeometry x="320" y="160" width="120" height="60" as="geometry" />
        </mxCell>
        <mxCell id="dqxaGF57X8NzNiyAntkz-14" value="&lt;b&gt;Menghapus Jadwal&lt;br&gt;&lt;/b&gt;" style="text;html=1;strokeColor=none;fillColor=none;align=center;verticalAlign=middle;whiteSpace=wrap;rounded=0;" vertex="1" parent="1">
          <mxGeometry x="345" y="20" width="70" height="30" as="geometry" />
        </mxCell>
        <mxCell id="dqxaGF57X8NzNiyAntkz-22" style="edgeStyle=orthogonalEdgeStyle;rounded=0;orthogonalLoop=1;jettySize=auto;html=1;exitX=0.5;exitY=1;exitDx=0;exitDy=0;entryX=0.5;entryY=0;entryDx=0;entryDy=0;" edge="1" parent="1" source="dqxaGF57X8NzNiyAntkz-15" target="dqxaGF57X8NzNiyAntkz-21">
          <mxGeometry relative="1" as="geometry" />
        </mxCell>
        <mxCell id="dqxaGF57X8NzNiyAntkz-15" value="Mencari nama file .json jadwal yang ingin diedit" style="rounded=0;whiteSpace=wrap;html=1;" vertex="1" parent="1">
          <mxGeometry x="520" y="80" width="120" height="60" as="geometry" />
        </mxCell>
        <mxCell id="dqxaGF57X8NzNiyAntkz-17" value="" style="ellipse;whiteSpace=wrap;html=1;aspect=fixed;" vertex="1" parent="1">
          <mxGeometry x="165" y="520" width="30" height="30" as="geometry" />
        </mxCell>
        <mxCell id="dqxaGF57X8NzNiyAntkz-19" value="" style="ellipse;whiteSpace=wrap;html=1;aspect=fixed;" vertex="1" parent="1">
          <mxGeometry x="365" y="250" width="30" height="30" as="geometry" />
        </mxCell>
        <mxCell id="dqxaGF57X8NzNiyAntkz-24" style="edgeStyle=orthogonalEdgeStyle;rounded=0;orthogonalLoop=1;jettySize=auto;html=1;exitX=0.5;exitY=1;exitDx=0;exitDy=0;entryX=0.5;entryY=0;entryDx=0;entryDy=0;" edge="1" parent="1" source="dqxaGF57X8NzNiyAntkz-21" target="dqxaGF57X8NzNiyAntkz-23">
          <mxGeometry relative="1" as="geometry" />
        </mxCell>
        <mxCell id="dqxaGF57X8NzNiyAntkz-21" value="Mengubah nilai variabel jadwal sesuai kebutuhan" style="rounded=0;whiteSpace=wrap;html=1;" vertex="1" parent="1">
          <mxGeometry x="520" y="160" width="120" height="60" as="geometry" />
        </mxCell>
        <mxCell id="dqxaGF57X8NzNiyAntkz-23" value="" style="ellipse;whiteSpace=wrap;html=1;aspect=fixed;" vertex="1" parent="1">
          <mxGeometry x="565" y="250" width="30" height="30" as="geometry" />
        </mxCell>
        <mxCell id="dqxaGF57X8NzNiyAntkz-25" value="&lt;b&gt;Mengedit Jadwal&lt;br&gt;&lt;/b&gt;" style="text;html=1;strokeColor=none;fillColor=none;align=center;verticalAlign=middle;whiteSpace=wrap;rounded=0;" vertex="1" parent="1">
          <mxGeometry x="545" y="20" width="70" height="30" as="geometry" />
        </mxCell>
        <mxCell id="dqxaGF57X8NzNiyAntkz-31" style="edgeStyle=orthogonalEdgeStyle;rounded=0;orthogonalLoop=1;jettySize=auto;html=1;exitX=0.5;exitY=1;exitDx=0;exitDy=0;entryX=0.5;entryY=0;entryDx=0;entryDy=0;" edge="1" parent="1" source="dqxaGF57X8NzNiyAntkz-29" target="dqxaGF57X8NzNiyAntkz-3">
          <mxGeometry relative="1" as="geometry" />
        </mxCell>
        <mxCell id="dqxaGF57X8NzNiyAntkz-29" value="Menambah ID file / nama file ke listjadwal.json agar jadwal terdaftarkan" style="rounded=0;whiteSpace=wrap;html=1;" vertex="1" parent="1">
          <mxGeometry x="120" y="350" width="120" height="60" as="geometry" />
        </mxCell>
        <mxCell id="dqxaGF57X8NzNiyAntkz-33" value="&lt;b&gt;Cek Jadwal&lt;br&gt;&lt;/b&gt;" style="text;html=1;strokeColor=none;fillColor=none;align=center;verticalAlign=middle;whiteSpace=wrap;rounded=0;" vertex="1" parent="1">
          <mxGeometry x="745" y="20" width="70" height="30" as="geometry" />
        </mxCell>
        <mxCell id="dqxaGF57X8NzNiyAntkz-36" style="edgeStyle=orthogonalEdgeStyle;rounded=0;orthogonalLoop=1;jettySize=auto;html=1;exitX=0.5;exitY=1;exitDx=0;exitDy=0;entryX=0.5;entryY=0;entryDx=0;entryDy=0;" edge="1" parent="1" source="dqxaGF57X8NzNiyAntkz-34" target="dqxaGF57X8NzNiyAntkz-35">
          <mxGeometry relative="1" as="geometry" />
        </mxCell>
        <mxCell id="dqxaGF57X8NzNiyAntkz-34" value="Memilih tanggal, masukkan &quot;0&quot; untuk hari ini. Format tanggal DD-MM-YYYY" style="rounded=0;whiteSpace=wrap;html=1;" vertex="1" parent="1">
          <mxGeometry x="720" y="80" width="120" height="60" as="geometry" />
        </mxCell>
        <mxCell id="dqxaGF57X8NzNiyAntkz-38" style="edgeStyle=orthogonalEdgeStyle;rounded=0;orthogonalLoop=1;jettySize=auto;html=1;exitX=0.5;exitY=1;exitDx=0;exitDy=0;entryX=0.5;entryY=0;entryDx=0;entryDy=0;" edge="1" parent="1" source="dqxaGF57X8NzNiyAntkz-35" target="dqxaGF57X8NzNiyAntkz-37">
          <mxGeometry relative="1" as="geometry" />
        </mxCell>
        <mxCell id="dqxaGF57X8NzNiyAntkz-35" value="Sistem menampilkan daftar jadwal kegiatan di tanggal yang dimasukkan" style="rounded=0;whiteSpace=wrap;html=1;" vertex="1" parent="1">
          <mxGeometry x="720" y="160" width="120" height="60" as="geometry" />
        </mxCell>
        <mxCell id="dqxaGF57X8NzNiyAntkz-37" value="" style="ellipse;whiteSpace=wrap;html=1;aspect=fixed;" vertex="1" parent="1">
          <mxGeometry x="765" y="240" width="30" height="30" as="geometry" />
        </mxCell>
      </root>
    </mxGraphModel>
  </diagram>
</mxfile>
